<svg id="Calque_1" data-name="Calque 1" xmlns="http://www.w3.org/2000/svg" viewBox="0 0 6.38 8.65"><defs><style>.cls-1{fill:#fff;}</style></defs><path class="cls-1" d="M4.09,4.43,3.72,2.84l1,.45a.45.45,0,0,0,.59-.2L5.91,2l.61,1.08a.45.45,0,0,0,.59.2l1-.45L7.76,4.32a3.28,3.28,0,0,1,.52.2l.41-1.73a.46.46,0,0,0-.33-.56.54.54,0,0,0-.31,0L7,2.74,6.32,1.59a.47.47,0,0,0-.63-.18.39.39,0,0,0-.18.18L4.87,2.74l-1.1-.48a.45.45,0,0,0-.6.21v0a.51.51,0,0,0,0,.3l.43,1.8Z" transform="translate(-2.74 -1.35)"/><path class="cls-1" d="M6.73,8.23,5.59,7.08V5.47h.64V6.82l1,.95ZM5.59,4.83V4.18h.64v.65ZM7.85,7.08V6.44h.64v.64ZM5.59,9.34V8.69h.64v.65ZM3.34,7.08V6.44H4v.64Zm0-2.3.26-.3a3.26,3.26,0,0,1,1-.69,3.14,3.14,0,0,1,1.25-.25,3.22,3.22,0,0,1,1.26.25A3.18,3.18,0,0,1,8.88,8,3.22,3.22,0,0,1,7.17,9.73,3.07,3.07,0,0,1,5.91,10a3.14,3.14,0,0,1-1.25-.25,3.26,3.26,0,0,1-1-.69A3.15,3.15,0,0,1,3,8,3.19,3.19,0,0,1,3,5.5a3.23,3.23,0,0,1,.42-.72M5.91,9.34A2.57,2.57,0,0,0,8.49,6.8v0A2.57,2.57,0,0,0,6,4.18h0A2.54,2.54,0,0,0,3.34,6.76,2.54,2.54,0,0,0,5.91,9.34Z" transform="translate(-2.74 -1.35)"/></svg>